<svg viewBox="0 0 400 600" xmlns="http://www.w3.org/2000/svg">
    <!-- Cabine du camion -->
    <rect x="150" y="50" width="100" height="80" fill="#16a34a" stroke="#15803d" stroke-width="2" rx="8"/>

    <!-- Pare-brise avant -->
    <rect x="160" y="60" width="80" height="15" fill="#87ceeb" stroke="#4682b4" stroke-width="1" rx="2"/>

    <!-- Capot moteur (prolongement de la cabine) -->
    <rect x="150" y="20" width="100" height="35" fill="#16a34a" stroke="#15803d" stroke-width="1" rx="5"/>

    <!-- Rétroviseurs collés à la cabine -->
    <rect x="135" y="80" width="15" height="10" fill="#374151" rx="3"/>
    <rect x="250" y="80" width="15" height="10" fill="#374151" rx="3"/>

    <!-- Roues avant du tracteur (sous le capot) -->
    <rect x="130" y="35" width="20" height="40" fill="#1f2937" stroke="#111827" stroke-width="2" rx="3"/>
    <rect x="250" y="35" width="20" height="40" fill="#1f2937" stroke="#111827" stroke-width="2" rx="3"/>

    <!-- Roues arrière du tracteur (sous la cabine) -->
    <rect x="130" y="110" width="20" height="40" fill="#1f2937" stroke="#111827" stroke-width="2" rx="3"/>
    <rect x="250" y="110" width="20" height="40" fill="#1f2937" stroke="#111827" stroke-width="2" rx="3"/>

    <!-- Séparation entre cabine et remorque -->
    <rect x="120" y="135" width="160" height="15" fill="#374151"/>

    <!-- Remorque/conteneur -->
    <rect x="120" y="155" width="160" height="400" fill="#22c55e" stroke="#16a34a" stroke-width="2" rx="5"/>

    <!-- Roues de la remorque - essieu avant -->
    <rect x="110" y="220" width="10" height="50" fill="#1f2937" stroke="#111827" stroke-width="2" rx="3"/>
    <rect x="280" y="220" width="10" height="50" fill="#1f2937" stroke="#111827" stroke-width="2" rx="3"/>

    <!-- Roues de la remorque - essieu arrière (double) -->
    <rect x="110" y="450" width="10" height="50" fill="#1f2937" stroke="#111827" stroke-width="2" rx="3"/>
    <rect x="110" y="490" width="10" height="50" fill="#1f2937" stroke="#111827" stroke-width="2" rx="3"/>
    <rect x="280" y="450" width="10" height="50" fill="#1f2937" stroke="#111827" stroke-width="2" rx="3"/>
    <rect x="280" y="490" width="10" height="50" fill="#1f2937" stroke="#111827" stroke-width="2" rx="3"/>

    <!-- Détails sur la remorque -->
    <rect x="125" y="180" width="150" height="3" fill="#16a34a"/>
    <rect x="125" y="280" width="150" height="3" fill="#16a34a"/>
    <rect x="125" y="380" width="150" height="3" fill="#16a34a"/>

    <!-- Portes arrière de la remorque -->
    <line x1="200" y1="545" x2="200" y2="535" stroke="#16a34a" stroke-width="3"/>
    <rect x="195" y="540" width="10" height="8" fill="#15803d" rx="2"/>

    <!-- Détails cabine (sièges) -->
    <rect x="170" y="90" width="25" height="15" fill="#15803d" rx="3"/>
    <rect x="205" y="90" width="25" height="15" fill="#15803d" rx="3"/>
</svg>